<svg width="287" height="24" viewBox="0 0 287 24" fill="none" xmlns="http://www.w3.org/2000/svg">
<path d="M40.528 20L45.868 2.816H48.568L53.884 20H51.052L47.728 7.952L47.212 5.876H47.14L46.636 7.952L43.324 20H40.528ZM42.916 15.944L43.636 13.64H50.692L51.436 15.944H42.916ZM55.2546 20V2.816H59.9466C61.4026 2.816 62.6466 3.152 63.6786 3.824C64.7186 4.488 65.5186 5.444 66.0786 6.692C66.6386 7.94 66.9186 9.432 66.9186 11.168V11.648C66.9186 13.376 66.6386 14.868 66.0786 16.124C65.5186 17.372 64.7186 18.332 63.6786 19.004C62.6466 19.668 61.4026 20 59.9466 20H55.2546ZM57.9546 17.456H59.8866C61.2946 17.456 62.3546 16.972 63.0666 16.004C63.7866 15.036 64.1466 13.604 64.1466 11.708V11.108C64.1466 9.212 63.7866 7.78 63.0666 6.812C62.3546 5.844 61.2946 5.36 59.8866 5.36H57.9546V17.456ZM68.9252 20V2.816H73.6172C75.0732 2.816 76.3173 3.152 77.3493 3.824C78.3893 4.488 79.1892 5.444 79.7492 6.692C80.3093 7.94 80.5893 9.432 80.5893 11.168V11.648C80.5893 13.376 80.3093 14.868 79.7492 16.124C79.1892 17.372 78.3893 18.332 77.3493 19.004C76.3173 19.668 75.0732 20 73.6172 20H68.9252ZM71.6252 17.456H73.5572C74.9652 17.456 76.0252 16.972 76.7373 16.004C77.4572 15.036 77.8172 13.604 77.8172 11.708V11.108C77.8172 9.212 77.4572 7.78 76.7373 6.812C76.0252 5.844 74.9652 5.36 73.5572 5.36H71.6252V17.456ZM86.8439 18.716V4.1H89.5799V18.716H86.8439ZM83.0039 20V17.432H93.4199V20H83.0039ZM83.0039 5.372V2.816H93.4199V5.372H83.0039ZM100.514 20V4.064H103.25V20H100.514ZM95.8585 5.384V2.816H107.906V5.384H95.8585ZM114.185 18.716V4.1H116.921V18.716H114.185ZM110.345 20V17.432H120.761V20H110.345ZM110.345 5.372V2.816H120.761V5.372H110.345ZM129.224 20.396C127.904 20.396 126.768 20.044 125.816 19.34C124.864 18.636 124.132 17.632 123.62 16.328C123.108 15.016 122.852 13.456 122.852 11.648V11.168C122.852 9.352 123.108 7.792 123.62 6.488C124.132 5.184 124.864 4.18 125.816 3.476C126.768 2.772 127.904 2.42 129.224 2.42C130.544 2.42 131.68 2.772 132.632 3.476C133.584 4.18 134.316 5.184 134.828 6.488C135.34 7.792 135.596 9.352 135.596 11.168V11.648C135.596 13.456 135.34 15.016 134.828 16.328C134.316 17.632 133.584 18.636 132.632 19.34C131.68 20.044 130.544 20.396 129.224 20.396ZM129.224 17.828C130.384 17.828 131.272 17.3 131.888 16.244C132.504 15.188 132.812 13.676 132.812 11.708V11.108C132.812 9.148 132.5 7.64 131.876 6.584C131.26 5.52 130.376 4.988 129.224 4.988C128.08 4.988 127.196 5.52 126.572 6.584C125.948 7.64 125.636 9.148 125.636 11.108V11.708C125.636 13.676 125.944 15.188 126.56 16.244C127.184 17.3 128.072 17.828 129.224 17.828ZM136.834 20V2.816H139.582L146.422 15.152H146.494L146.254 11.192V2.816H148.954V20H146.518L139.354 7.124H139.282L139.534 11.096V20H136.834ZM149.893 20L155.233 2.816H157.933L163.249 20H160.417L157.093 7.952L156.577 5.876H156.505L156.001 7.952L152.689 20H149.893ZM152.281 15.944L153.001 13.64H160.057L160.801 15.944H152.281ZM165.268 20V2.816H167.992V17.432H175.996V20H165.268ZM198.225 20.396C196.857 20.396 195.665 20.04 194.649 19.328C193.641 18.608 192.861 17.596 192.309 16.292C191.757 14.98 191.481 13.432 191.481 11.648V11.168C191.481 9.368 191.749 7.816 192.285 6.512C192.829 5.2 193.597 4.192 194.589 3.488C195.589 2.776 196.773 2.42 198.141 2.42C199.517 2.42 200.685 2.796 201.645 3.548C202.605 4.3 203.297 5.392 203.721 6.824L201.201 7.688C200.905 6.752 200.509 6.068 200.013 5.636C199.525 5.204 198.885 4.988 198.093 4.988C196.869 4.988 195.921 5.52 195.249 6.584C194.585 7.64 194.253 9.148 194.253 11.108V11.708C194.253 13.652 194.601 15.16 195.297 16.232C196.001 17.296 196.985 17.828 198.249 17.828C199.825 17.828 200.881 16.92 201.417 15.104L203.937 15.956C203.521 17.38 202.821 18.476 201.837 19.244C200.853 20.012 199.649 20.396 198.225 20.396ZM211.248 20.396C209.928 20.396 208.792 20.044 207.84 19.34C206.888 18.636 206.156 17.632 205.644 16.328C205.132 15.016 204.876 13.456 204.876 11.648V11.168C204.876 9.352 205.132 7.792 205.644 6.488C206.156 5.184 206.888 4.18 207.84 3.476C208.792 2.772 209.928 2.42 211.248 2.42C212.568 2.42 213.704 2.772 214.656 3.476C215.608 4.18 216.34 5.184 216.852 6.488C217.364 7.792 217.62 9.352 217.62 11.168V11.648C217.62 13.456 217.364 15.016 216.852 16.328C216.34 17.632 215.608 18.636 214.656 19.34C213.704 20.044 212.568 20.396 211.248 20.396ZM211.248 17.828C212.408 17.828 213.296 17.3 213.912 16.244C214.528 15.188 214.836 13.676 214.836 11.708V11.108C214.836 9.148 214.524 7.64 213.9 6.584C213.284 5.52 212.4 4.988 211.248 4.988C210.104 4.988 209.22 5.52 208.596 6.584C207.972 7.64 207.66 9.148 207.66 11.108V11.708C207.66 13.676 207.968 15.188 208.584 16.244C209.208 17.3 210.096 17.828 211.248 17.828ZM224.918 20.396C223.79 20.396 222.802 20.152 221.954 19.664C221.106 19.168 220.446 18.484 219.974 17.612C219.502 16.732 219.266 15.716 219.266 14.564V2.816H221.978V14.444C221.978 15.484 222.238 16.308 222.758 16.916C223.286 17.524 224.006 17.828 224.918 17.828C225.838 17.828 226.558 17.524 227.078 16.916C227.598 16.308 227.858 15.484 227.858 14.444V2.816H230.57V14.564C230.57 15.716 230.334 16.732 229.862 17.612C229.39 18.484 228.73 19.168 227.882 19.664C227.042 20.152 226.054 20.396 224.918 20.396ZM233.129 20V2.816H238.517C239.677 2.816 240.681 3.028 241.529 3.452C242.377 3.876 243.033 4.476 243.497 5.252C243.961 6.028 244.193 6.948 244.193 8.012V8.228C244.193 9.284 243.961 10.204 243.497 10.988C243.033 11.764 242.377 12.364 241.529 12.788C240.681 13.212 239.677 13.424 238.517 13.424H234.665V11.048H238.457C239.393 11.048 240.125 10.812 240.653 10.34C241.181 9.86 241.445 9.196 241.445 8.348V8.012C241.445 7.164 241.181 6.5 240.653 6.02C240.125 5.54 239.393 5.3 238.457 5.3H235.817V20H233.129ZM242.141 20L237.593 12.356H240.569L245.225 20H242.141ZM252.763 20.396C251.659 20.396 250.651 20.204 249.739 19.82C248.835 19.428 248.063 18.872 247.423 18.152C246.783 17.424 246.307 16.552 245.995 15.536L248.515 14.732C248.843 15.756 249.367 16.536 250.087 17.072C250.807 17.608 251.691 17.876 252.739 17.876C253.667 17.876 254.391 17.672 254.911 17.264C255.431 16.856 255.691 16.292 255.691 15.572V15.416C255.691 14.808 255.483 14.3 255.067 13.892C254.651 13.484 253.951 13.104 252.967 12.752L250.615 11.888C248.191 11.008 246.979 9.48 246.979 7.304V7.232C246.979 6.272 247.211 5.432 247.675 4.712C248.139 3.992 248.787 3.432 249.619 3.032C250.451 2.624 251.415 2.42 252.511 2.42C253.991 2.42 255.223 2.756 256.207 3.428C257.199 4.092 257.915 5.076 258.355 6.38L255.859 7.22C255.339 5.7 254.227 4.94 252.523 4.94C251.667 4.94 250.979 5.136 250.459 5.528C249.947 5.92 249.691 6.444 249.691 7.1V7.22C249.691 7.74 249.859 8.18 250.195 8.54C250.539 8.892 251.099 9.208 251.875 9.488L254.239 10.352C255.679 10.88 256.731 11.556 257.395 12.38C258.067 13.196 258.403 14.22 258.403 15.452V15.548C258.403 16.516 258.167 17.364 257.695 18.092C257.223 18.82 256.563 19.388 255.715 19.796C254.875 20.196 253.891 20.396 252.763 20.396ZM260.782 20V2.816H270.814V5.348H263.494V17.468H271.006V20H260.782ZM262.402 12.464V9.944H269.854V12.464H262.402ZM280.105 20.396C279.001 20.396 277.993 20.204 277.081 19.82C276.177 19.428 275.405 18.872 274.765 18.152C274.125 17.424 273.649 16.552 273.337 15.536L275.857 14.732C276.185 15.756 276.709 16.536 277.429 17.072C278.149 17.608 279.033 17.876 280.081 17.876C281.009 17.876 281.733 17.672 282.253 17.264C282.773 16.856 283.033 16.292 283.033 15.572V15.416C283.033 14.808 282.825 14.3 282.409 13.892C281.993 13.484 281.293 13.104 280.309 12.752L277.957 11.888C275.533 11.008 274.321 9.48 274.321 7.304V7.232C274.321 6.272 274.553 5.432 275.017 4.712C275.481 3.992 276.129 3.432 276.961 3.032C277.793 2.624 278.757 2.42 279.853 2.42C281.333 2.42 282.565 2.756 283.549 3.428C284.541 4.092 285.257 5.076 285.697 6.38L283.201 7.22C282.681 5.7 281.569 4.94 279.865 4.94C279.009 4.94 278.321 5.136 277.801 5.528C277.289 5.92 277.033 6.444 277.033 7.1V7.22C277.033 7.74 277.201 8.18 277.537 8.54C277.881 8.892 278.441 9.208 279.217 9.488L281.581 10.352C283.021 10.88 284.073 11.556 284.737 12.38C285.409 13.196 285.745 14.22 285.745 15.452V15.548C285.745 16.516 285.509 17.364 285.037 18.092C284.565 18.82 283.905 19.388 283.057 19.796C282.217 20.196 281.233 20.396 280.105 20.396Z" fill="#737373"/>
<path d="M14 9.9V8.2C14.55 7.96667 15.1125 7.79167 15.6875 7.675C16.2625 7.55833 16.8667 7.5 17.5 7.5C17.9333 7.5 18.3583 7.53333 18.775 7.6C19.1917 7.66667 19.6 7.75 20 7.85V9.45C19.6 9.3 19.1958 9.1875 18.7875 9.1125C18.3792 9.0375 17.95 9 17.5 9C16.8667 9 16.2583 9.07917 15.675 9.2375C15.0917 9.39583 14.5333 9.61667 14 9.9ZM14 15.4V13.7C14.55 13.4667 15.1125 13.2917 15.6875 13.175C16.2625 13.0583 16.8667 13 17.5 13C17.9333 13 18.3583 13.0333 18.775 13.1C19.1917 13.1667 19.6 13.25 20 13.35V14.95C19.6 14.8 19.1958 14.6875 18.7875 14.6125C18.3792 14.5375 17.95 14.5 17.5 14.5C16.8667 14.5 16.2583 14.575 15.675 14.725C15.0917 14.875 14.5333 15.1 14 15.4ZM14 12.65V10.95C14.55 10.7167 15.1125 10.5417 15.6875 10.425C16.2625 10.3083 16.8667 10.25 17.5 10.25C17.9333 10.25 18.3583 10.2833 18.775 10.35C19.1917 10.4167 19.6 10.5 20 10.6V12.2C19.6 12.05 19.1958 11.9375 18.7875 11.8625C18.3792 11.7875 17.95 11.75 17.5 11.75C16.8667 11.75 16.2583 11.8292 15.675 11.9875C15.0917 12.1458 14.5333 12.3667 14 12.65ZM6.5 16C7.28333 16 8.04583 16.0875 8.7875 16.2625C9.52917 16.4375 10.2667 16.7 11 17.05V7.2C10.3167 6.8 9.59167 6.5 8.825 6.3C8.05833 6.1 7.28333 6 6.5 6C5.9 6 5.30417 6.05833 4.7125 6.175C4.12083 6.29167 3.55 6.46667 3 6.7V16.6C3.58333 16.4 4.1625 16.25 4.7375 16.15C5.3125 16.05 5.9 16 6.5 16ZM13 17.05C13.7333 16.7 14.4708 16.4375 15.2125 16.2625C15.9542 16.0875 16.7167 16 17.5 16C18.1 16 18.6875 16.05 19.2625 16.15C19.8375 16.25 20.4167 16.4 21 16.6V6.7C20.45 6.46667 19.8792 6.29167 19.2875 6.175C18.6958 6.05833 18.1 6 17.5 6C16.7167 6 15.9417 6.1 15.175 6.3C14.4083 6.5 13.6833 6.8 13 7.2V17.05ZM12 20C11.2 19.3667 10.3333 18.875 9.4 18.525C8.46667 18.175 7.5 18 6.5 18C5.8 18 5.1125 18.0917 4.4375 18.275C3.7625 18.4583 3.11667 18.7167 2.5 19.05C2.15 19.2333 1.8125 19.225 1.4875 19.025C1.1625 18.825 1 18.5333 1 18.15V6.1C1 5.91667 1.04583 5.74167 1.1375 5.575C1.22917 5.40833 1.36667 5.28333 1.55 5.2C2.31667 4.8 3.11667 4.5 3.95 4.3C4.78333 4.1 5.63333 4 6.5 4C7.46667 4 8.4125 4.125 9.3375 4.375C10.2625 4.625 11.15 5 12 5.5C12.85 5 13.7375 4.625 14.6625 4.375C15.5875 4.125 16.5333 4 17.5 4C18.3667 4 19.2167 4.1 20.05 4.3C20.8833 4.5 21.6833 4.8 22.45 5.2C22.6333 5.28333 22.7708 5.40833 22.8625 5.575C22.9542 5.74167 23 5.91667 23 6.1V18.15C23 18.5333 22.8375 18.825 22.5125 19.025C22.1875 19.225 21.85 19.2333 21.5 19.05C20.8833 18.7167 20.2375 18.4583 19.5625 18.275C18.8875 18.0917 18.2 18 17.5 18C16.5 18 15.5333 18.175 14.6 18.525C13.6667 18.875 12.8 19.3667 12 20Z" fill="url(#paint0_linear_11_181)"/>
<defs>
<linearGradient id="paint0_linear_11_181" x1="-3.76667" y1="12" x2="29.2333" y2="12" gradientUnits="userSpaceOnUse">
<stop stop-color="#2A71DD"/>
<stop offset="1" stop-color="#022C6C"/>
</linearGradient>
</defs>
</svg>
