<svg width="159" height="159" viewBox="0 0 159 159" fill="none" xmlns="http://www.w3.org/2000/svg">
<rect x="0.5" y="0.5" width="158" height="158" rx="20.5" fill="#F5F5F5" stroke="black"/>
<path d="M30.7407 12.1219L135.699 48.6186L137.111 49.1095L137.347 50.5851L139.929 66.7307L140.164 68.2062L138.977 69.1129L50.6301 136.518L47.3064 139.054L46.6451 134.924L43.7125 116.583L43.4755 115.099L44.6755 114.193L112.685 62.8609L32.0414 35.1905L30.6205 34.7034L30.3834 33.2208L27.4508 14.8788L26.7906 10.7484L30.7407 12.1219Z" fill="black" stroke="black" stroke-width="5"/>
<path d="M72.256 27.1923L43.4006 138.691L42.8572 140.792L40.7333 141.239L29.6309 143.575L24.1071 144.738L25.5213 139.274L54.3767 27.7753L54.92 25.6738L57.044 25.2272L68.1464 22.8899L73.6701 21.7276L72.256 27.1923Z" fill="#5D5D5D" stroke="#5D5D5D" stroke-width="7"/>
</svg>
