<svg width="159" height="159" viewBox="0 0 159 159" fill="none" xmlns="http://www.w3.org/2000/svg">
<rect width="159" height="159" rx="21" fill="#D9D9D9"/>
<path d="M35.729 18.6383L130.093 51.4511L131.505 51.942L131.741 53.4176L134.062 67.9335L134.298 69.4091L133.11 70.3157L53.6816 130.916L50.3568 133.453L49.6965 129.324L47.0593 112.834L46.8223 111.349L48.0224 110.443L108.788 64.5779L36.7333 39.8548L35.3125 39.3677L35.0763 37.8852L32.439 21.3952L31.7789 17.2647L35.729 18.6383Z" fill="black" stroke="black" stroke-width="5"/>
<path d="M73.3127 32.5143L47.37 132.758L46.8266 134.859L44.7026 135.306L34.7211 137.407L29.1973 138.569L30.6115 133.105L56.5542 32.8614L57.0976 30.7599L59.2216 30.3133L69.2032 28.2119L74.7269 27.0496L73.3127 32.5143Z" fill="#5D5D5D" stroke="#5D5D5D" stroke-width="7"/>
</svg>
