<svg width="164" height="24" viewBox="0 0 164 24" fill="none" xmlns="http://www.w3.org/2000/svg">
<path d="M42.232 20V2.816H44.956V17.432H52.96V20H42.232ZM54.1986 20L59.5386 2.816H62.2386L67.5546 20H64.7226L61.3986 7.952L60.8826 5.876H60.8106L60.3066 7.952L56.9946 20H54.1986ZM56.5866 15.944L57.3066 13.64H64.3626L65.1066 15.944H56.5866ZM68.4812 20V2.816H71.2292L78.0693 15.152H78.1412L77.9013 11.192V2.816H80.6012V20H78.1653L71.0012 7.124H70.9292L71.1812 11.096V20H68.4812ZM88.7759 20.396C87.3599 20.396 86.1399 20.048 85.1159 19.352C84.0999 18.648 83.3159 17.648 82.7639 16.352C82.2199 15.056 81.9479 13.5 81.9479 11.684V11.264C81.9479 9.424 82.2199 7.844 82.7639 6.524C83.3079 5.204 84.0879 4.192 85.1039 3.488C86.1279 2.776 87.3479 2.42 88.7639 2.42C90.1399 2.42 91.2999 2.76 92.2439 3.44C93.1959 4.112 93.8959 5.092 94.3439 6.38L91.8959 7.352C91.6159 6.552 91.2199 5.96 90.7079 5.576C90.2039 5.184 89.5679 4.988 88.7999 4.988C87.4799 4.988 86.4639 5.524 85.7519 6.596C85.0479 7.668 84.6959 9.204 84.6959 11.204V11.744C84.6959 13.712 85.0479 15.224 85.7519 16.28C86.4559 17.328 87.4679 17.852 88.7879 17.852C89.8919 17.852 90.7319 17.476 91.3079 16.724C91.8919 15.972 92.1839 14.888 92.1839 13.472V12.872H88.4279V10.508H94.7639V13.088C94.7639 15.4 94.2399 17.196 93.1919 18.476C92.1439 19.756 90.6719 20.396 88.7759 20.396ZM101.882 20.396C100.754 20.396 99.7665 20.152 98.9185 19.664C98.0705 19.168 97.4105 18.484 96.9385 17.612C96.4665 16.732 96.2305 15.716 96.2305 14.564V2.816H98.9425V14.444C98.9425 15.484 99.2025 16.308 99.7225 16.916C100.25 17.524 100.97 17.828 101.882 17.828C102.802 17.828 103.522 17.524 104.042 16.916C104.562 16.308 104.822 15.484 104.822 14.444V2.816H107.535V14.564C107.535 15.716 107.299 16.732 106.826 17.612C106.354 18.484 105.694 19.168 104.846 19.664C104.006 20.152 103.018 20.396 101.882 20.396ZM108.881 20L114.221 2.816H116.921L122.237 20H119.405L116.081 7.952L115.565 5.876H115.493L114.989 7.952L111.677 20H108.881ZM111.269 15.944L111.989 13.64H119.045L119.789 15.944H111.269ZM129.788 20.396C128.372 20.396 127.152 20.048 126.128 19.352C125.112 18.648 124.328 17.648 123.776 16.352C123.232 15.056 122.96 13.5 122.96 11.684V11.264C122.96 9.424 123.232 7.844 123.776 6.524C124.32 5.204 125.1 4.192 126.116 3.488C127.14 2.776 128.36 2.42 129.776 2.42C131.152 2.42 132.312 2.76 133.256 3.44C134.208 4.112 134.908 5.092 135.356 6.38L132.908 7.352C132.628 6.552 132.232 5.96 131.72 5.576C131.216 5.184 130.58 4.988 129.812 4.988C128.492 4.988 127.476 5.524 126.764 6.596C126.06 7.668 125.708 9.204 125.708 11.204V11.744C125.708 13.712 126.06 15.224 126.764 16.28C127.468 17.328 128.48 17.852 129.8 17.852C130.904 17.852 131.744 17.476 132.32 16.724C132.904 15.972 133.196 14.888 133.196 13.472V12.872H129.44V10.508H135.776V13.088C135.776 15.4 135.252 17.196 134.204 18.476C133.156 19.756 131.684 20.396 129.788 20.396ZM137.746 20V2.816H147.778V5.348H140.458V17.468H147.97V20H137.746ZM139.366 12.464V9.944H146.818V12.464H139.366ZM157.069 20.396C155.965 20.396 154.957 20.204 154.045 19.82C153.141 19.428 152.369 18.872 151.729 18.152C151.089 17.424 150.613 16.552 150.301 15.536L152.821 14.732C153.149 15.756 153.673 16.536 154.393 17.072C155.113 17.608 155.997 17.876 157.045 17.876C157.973 17.876 158.697 17.672 159.217 17.264C159.737 16.856 159.997 16.292 159.997 15.572V15.416C159.997 14.808 159.789 14.3 159.373 13.892C158.957 13.484 158.257 13.104 157.273 12.752L154.921 11.888C152.497 11.008 151.285 9.48 151.285 7.304V7.232C151.285 6.272 151.517 5.432 151.981 4.712C152.445 3.992 153.093 3.432 153.925 3.032C154.757 2.624 155.721 2.42 156.817 2.42C158.297 2.42 159.529 2.756 160.513 3.428C161.505 4.092 162.221 5.076 162.661 6.38L160.165 7.22C159.645 5.7 158.533 4.94 156.829 4.94C155.973 4.94 155.285 5.136 154.765 5.528C154.253 5.92 153.997 6.444 153.997 7.1V7.22C153.997 7.74 154.165 8.18 154.501 8.54C154.845 8.892 155.405 9.208 156.181 9.488L158.545 10.352C159.985 10.88 161.037 11.556 161.701 12.38C162.373 13.196 162.709 14.22 162.709 15.452V15.548C162.709 16.516 162.473 17.364 162.001 18.092C161.529 18.82 160.869 19.388 160.021 19.796C159.181 20.196 158.197 20.396 157.069 20.396Z" fill="#737373"/>
<path d="M12 22C10.6333 22 9.34167 21.7375 8.125 21.2125C6.90833 20.6875 5.84583 19.9708 4.9375 19.0625C4.02917 18.1542 3.3125 17.0917 2.7875 15.875C2.2625 14.6583 2 13.3667 2 12C2 10.6167 2.2625 9.32083 2.7875 8.1125C3.3125 6.90417 4.02917 5.84583 4.9375 4.9375C5.84583 4.02917 6.90833 3.3125 8.125 2.7875C9.34167 2.2625 10.6333 2 12 2C13.3833 2 14.6792 2.2625 15.8875 2.7875C17.0958 3.3125 18.1542 4.02917 19.0625 4.9375C19.9708 5.84583 20.6875 6.90417 21.2125 8.1125C21.7375 9.32083 22 10.6167 22 12C22 13.3667 21.7375 14.6583 21.2125 15.875C20.6875 17.0917 19.9708 18.1542 19.0625 19.0625C18.1542 19.9708 17.0958 20.6875 15.8875 21.2125C14.6792 21.7375 13.3833 22 12 22ZM12 19.95C12.4333 19.35 12.8083 18.725 13.125 18.075C13.4417 17.425 13.7 16.7333 13.9 16H10.1C10.3 16.7333 10.5583 17.425 10.875 18.075C11.1917 18.725 11.5667 19.35 12 19.95ZM9.4 19.55C9.1 19 8.8375 18.4292 8.6125 17.8375C8.3875 17.2458 8.2 16.6333 8.05 16H5.1C5.58333 16.8333 6.1875 17.5583 6.9125 18.175C7.6375 18.7917 8.46667 19.25 9.4 19.55ZM14.6 19.55C15.5333 19.25 16.3625 18.7917 17.0875 18.175C17.8125 17.5583 18.4167 16.8333 18.9 16H15.95C15.8 16.6333 15.6125 17.2458 15.3875 17.8375C15.1625 18.4292 14.9 19 14.6 19.55ZM4.25 14H7.65C7.6 13.6667 7.5625 13.3375 7.5375 13.0125C7.5125 12.6875 7.5 12.35 7.5 12C7.5 11.65 7.5125 11.3125 7.5375 10.9875C7.5625 10.6625 7.6 10.3333 7.65 10H4.25C4.16667 10.3333 4.10417 10.6625 4.0625 10.9875C4.02083 11.3125 4 11.65 4 12C4 12.35 4.02083 12.6875 4.0625 13.0125C4.10417 13.3375 4.16667 13.6667 4.25 14ZM9.65 14H14.35C14.4 13.6667 14.4375 13.3375 14.4625 13.0125C14.4875 12.6875 14.5 12.35 14.5 12C14.5 11.65 14.4875 11.3125 14.4625 10.9875C14.4375 10.6625 14.4 10.3333 14.35 10H9.65C9.6 10.3333 9.5625 10.6625 9.5375 10.9875C9.5125 11.3125 9.5 11.65 9.5 12C9.5 12.35 9.5125 12.6875 9.5375 13.0125C9.5625 13.3375 9.6 13.6667 9.65 14ZM16.35 14H19.75C19.8333 13.6667 19.8958 13.3375 19.9375 13.0125C19.9792 12.6875 20 12.35 20 12C20 11.65 19.9792 11.3125 19.9375 10.9875C19.8958 10.6625 19.8333 10.3333 19.75 10H16.35C16.4 10.3333 16.4375 10.6625 16.4625 10.9875C16.4875 11.3125 16.5 11.65 16.5 12C16.5 12.35 16.4875 12.6875 16.4625 13.0125C16.4375 13.3375 16.4 13.6667 16.35 14ZM15.95 8H18.9C18.4167 7.16667 17.8125 6.44167 17.0875 5.825C16.3625 5.20833 15.5333 4.75 14.6 4.45C14.9 5 15.1625 5.57083 15.3875 6.1625C15.6125 6.75417 15.8 7.36667 15.95 8ZM10.1 8H13.9C13.7 7.26667 13.4417 6.575 13.125 5.925C12.8083 5.275 12.4333 4.65 12 4.05C11.5667 4.65 11.1917 5.275 10.875 5.925C10.5583 6.575 10.3 7.26667 10.1 8ZM5.1 8H8.05C8.2 7.36667 8.3875 6.75417 8.6125 6.1625C8.8375 5.57083 9.1 5 9.4 4.45C8.46667 4.75 7.6375 5.20833 6.9125 5.825C6.1875 6.44167 5.58333 7.16667 5.1 8Z" fill="url(#paint0_linear_12_184)"/>
<defs>
<linearGradient id="paint0_linear_12_184" x1="-2.33333" y1="12" x2="27.6667" y2="12" gradientUnits="userSpaceOnUse">
<stop stop-color="#2A71DD"/>
<stop offset="1" stop-color="#022C6C"/>
</linearGradient>
</defs>
</svg>
