<svg width="308" height="65" viewBox="0 0 308 65" fill="none" xmlns="http://www.w3.org/2000/svg">
<path d="M3.456 46V0.175999H17.248C21.0667 0.175999 24.384 1.09333 27.2 2.928C30.0373 4.74133 32.224 7.312 33.76 10.64C35.3173 13.9467 36.096 17.8507 36.096 22.352V23.824C36.096 28.3253 35.3173 32.24 33.76 35.568C32.224 38.8747 30.0373 41.4453 27.2 43.28C24.384 45.0933 21.0667 46 17.248 46H3.456ZM14.464 35.44H17.152C19.7547 35.44 21.696 34.4907 22.976 32.592C24.256 30.672 24.896 27.8027 24.896 23.984V22.192C24.896 18.3733 24.2453 15.5147 22.944 13.616C21.6427 11.696 19.712 10.736 17.152 10.736H14.464V35.44Z" fill="#262626"/>
<path d="M47.079 41.84V12.272H56.167V20.176H56.679C57.6603 17.2533 59.079 15.024 60.935 13.488C62.8123 11.9307 65.0097 11.152 67.527 11.152C69.2123 11.152 70.7163 11.4933 72.039 12.176C73.383 12.8373 74.7697 13.968 76.199 15.568L69.799 23.376C68.8177 22.3733 67.911 21.68 67.079 21.296C66.2683 20.912 65.3403 20.72 64.295 20.72C62.119 20.72 60.4763 21.392 59.367 22.736C58.2577 24.08 57.703 26.0853 57.703 28.752V41.84H47.079ZM40.679 46V37.936H68.583V46H40.679ZM41.319 20.336V12.272H51.911V20.336H41.319Z" fill="#262626"/>
<path d="M90.958 47.12C88.782 47.12 86.862 46.672 85.198 45.776C83.534 44.8587 82.2327 43.6 81.294 42C80.3767 40.3787 79.918 38.5227 79.918 36.432V36.112C79.918 32.656 81.102 29.904 83.47 27.856C85.838 25.7867 89.0167 24.752 93.006 24.752C94.6487 24.752 96.1633 24.88 97.55 25.136C98.958 25.392 100.281 25.7653 101.518 26.256V32.24C99.9607 31.3867 98.158 30.96 96.11 30.96C94.4247 30.96 93.1447 31.344 92.27 32.112C91.3953 32.8587 90.958 33.9787 90.958 35.472V35.984C90.958 37.3067 91.31 38.32 92.014 39.024C92.7393 39.728 93.7633 40.08 95.086 40.08C96.2167 40.08 97.198 39.792 98.03 39.216C98.862 38.6187 99.502 37.7867 99.95 36.72C100.419 35.632 100.654 34.3627 100.654 32.912V25.136C100.654 23.1093 100.142 21.616 99.118 20.656C98.1153 19.696 96.654 19.216 94.734 19.216C92.0673 19.216 89.5393 20.336 87.15 22.576L81.71 16.752C85.4647 13.0187 90.35 11.152 96.366 11.152C101.273 11.152 104.985 12.2827 107.502 14.544C110.041 16.8053 111.31 20.1653 111.31 24.624V46H100.846V41.872H100.526C99.5447 43.536 98.2327 44.8267 96.59 45.744C94.9473 46.6613 93.07 47.12 90.958 47.12Z" fill="#262626"/>
<path d="M128.885 47.12C125.856 47.12 123.488 46.1067 121.781 44.08C120.074 42.0533 119.221 39.3013 119.221 35.824V12.272H130.165V33.232C130.165 34.7467 130.517 35.9307 131.221 36.784C131.925 37.616 132.896 38.032 134.133 38.032C135.434 38.032 136.448 37.4987 137.173 36.432C137.92 35.344 138.293 33.8613 138.293 31.984V12.272H149.269V46H138.805V40.88H138.453C137.472 42.6933 136.17 44.1867 134.549 45.36C132.928 46.5333 131.04 47.12 128.885 47.12Z" fill="#262626"/>
<path d="M172.732 64.304C169.105 64.304 165.905 63.792 163.132 62.768C160.359 61.7653 158.193 60.3573 156.636 58.544C155.079 56.7307 154.3 54.6507 154.3 52.304C154.3 49.8293 155.1 47.7387 156.7 46.032C158.321 44.3253 160.572 43.2053 163.452 42.672L164.924 46.928C164.561 47.5467 164.295 48.1547 164.124 48.752C163.975 49.3493 163.9 49.9893 163.9 50.672C163.9 52.4427 164.679 53.8187 166.236 54.8C167.793 55.7813 169.991 56.272 172.828 56.272C175.601 56.272 177.788 55.856 179.388 55.024C181.009 54.2133 181.82 53.104 181.82 51.696C181.82 49.776 180.572 48.816 178.076 48.816H160.796V45.264L167.676 34.448L173.276 35.088L171.452 40.784H180.316C183.815 40.784 186.535 41.648 188.476 43.376C190.439 45.0827 191.42 47.4933 191.42 50.608C191.42 53.424 190.663 55.856 189.148 57.904C187.633 59.952 185.479 61.5307 182.684 62.64C179.911 63.7493 176.593 64.304 172.732 64.304ZM173.084 37.36C170.097 37.36 167.409 36.7947 165.02 35.664C162.652 34.512 160.775 32.9547 159.388 30.992C158.023 29.0293 157.34 26.8107 157.34 24.336V24.208C157.34 21.6267 157.969 19.3653 159.228 17.424C160.508 15.4613 162.268 13.936 164.508 12.848C166.769 11.7387 169.383 11.184 172.348 11.184C175.335 11.184 178.012 11.76 180.38 12.912C182.769 14.0427 184.657 15.5893 186.044 17.552C187.431 19.5147 188.124 21.7333 188.124 24.208V24.336C188.124 26.9173 187.484 29.1893 186.204 31.152C184.945 33.0933 183.185 34.6187 180.924 35.728C178.663 36.816 176.049 37.36 173.084 37.36ZM172.732 29.04C174.567 29.04 175.985 28.6453 176.988 27.856C177.991 27.0453 178.492 25.8933 178.492 24.4V24.24C178.492 22.7467 177.991 21.5947 176.988 20.784C175.985 19.9733 174.567 19.568 172.732 19.568C170.876 19.568 169.447 19.9733 168.444 20.784C167.441 21.5947 166.94 22.7467 166.94 24.24V24.4C166.94 25.8933 167.441 27.0453 168.444 27.856C169.447 28.6453 170.876 29.04 172.732 29.04ZM180.444 16.464L177.02 14.352C177.703 11.1733 179.175 8.77333 181.436 7.152C183.719 5.50933 186.737 4.688 190.492 4.688V13.232C185.884 13.232 182.535 14.3093 180.444 16.464Z" fill="#262626"/>
<path d="M205.635 47.12C202.606 47.12 200.238 46.1067 198.531 44.08C196.824 42.0533 195.971 39.3013 195.971 35.824V12.272H206.915V33.232C206.915 34.7467 207.267 35.9307 207.971 36.784C208.675 37.616 209.646 38.032 210.883 38.032C212.184 38.032 213.198 37.4987 213.923 36.432C214.67 35.344 215.043 33.8613 215.043 31.984V12.272H226.019V46H215.555V40.88H215.203C214.222 42.6933 212.92 44.1867 211.299 45.36C209.678 46.5333 207.79 47.12 205.635 47.12Z" fill="#262626"/>
<path d="M238.954 41.84V12.272H248.042V20.176H248.554C249.535 17.2533 250.954 15.024 252.81 13.488C254.687 11.9307 256.885 11.152 259.402 11.152C261.087 11.152 262.591 11.4933 263.914 12.176C265.258 12.8373 266.645 13.968 268.074 15.568L261.674 23.376C260.693 22.3733 259.786 21.68 258.954 21.296C258.143 20.912 257.215 20.72 256.17 20.72C253.994 20.72 252.351 21.392 251.242 22.736C250.133 24.08 249.578 26.0853 249.578 28.752V41.84H238.954ZM232.554 46V37.936H260.458V46H232.554ZM233.194 20.336V12.272H243.786V20.336H233.194Z" fill="#262626"/>
<path d="M287.825 46.96C285.884 46.96 284.22 46.288 282.833 44.944C281.468 43.6 280.785 41.9467 280.785 39.984C280.785 38.0427 281.468 36.4 282.833 35.056C284.198 33.6907 285.862 33.008 287.825 33.008C289.83 33.008 291.505 33.6907 292.849 35.056C294.193 36.4 294.865 38.0427 294.865 39.984C294.865 41.9467 294.193 43.6 292.849 44.944C291.505 46.288 289.83 46.96 287.825 46.96Z" fill="#262626"/>
<path d="M0 58.928H151.608V64.304H0V58.928ZM193.673 58.928H307.025V64.304H193.673V58.928Z" fill="#262626"/>
</svg>
